<svg xmlns="http://www.w3.org/2000/svg" width="44" height="44" viewBox="0 0 44 44">
  <path id="bug-solid" d="M44,24.827A2.787,2.787,0,0,1,41.193,27.5H36.438v1.375a12.327,12.327,0,0,1-1.169,5.255l5.176,5.176a2.75,2.75,0,0,1-3.889,3.889l-4.7-4.7a12.323,12.323,0,0,1-7.789,2.759V20.281a1.031,1.031,0,0,0-1.031-1.031H20.969a1.031,1.031,0,0,0-1.031,1.031V41.25a12.323,12.323,0,0,1-7.789-2.759l-4.7,4.7a2.75,2.75,0,0,1-3.889-3.889L8.732,34.13a12.327,12.327,0,0,1-1.169-5.255V27.5H2.808A2.787,2.787,0,0,1,0,24.827,2.75,2.75,0,0,1,2.751,22H7.563V16.952L3.556,12.944A2.75,2.75,0,1,1,7.445,9.055L12.14,13.75H31.861l4.694-4.694a2.75,2.75,0,1,1,3.889,3.889l-4.007,4.007V22H41.25A2.75,2.75,0,0,1,44,24.827ZM22.086,0a9.625,9.625,0,0,0-9.625,9.625h19.25A9.625,9.625,0,0,0,22.086,0Z" transform="translate(-0.001)" fill="#00ff08"/>
</svg>
