<svg xmlns="http://www.w3.org/2000/svg" width="44.204" height="44.204" viewBox="0 0 44.204 44.204">
  <path id="call" d="M418.441,90.61a36.932,36.932,0,0,0,16.208,16.208l5.4-5.4a1.955,1.955,0,0,1,2.456-.491,25.688,25.688,0,0,0,8.841,1.473,2.518,2.518,0,0,1,2.456,2.456v8.6a2.518,2.518,0,0,1-2.456,2.456,40.244,40.244,0,0,1-29.469-12.279A40.244,40.244,0,0,1,409.6,74.156a2.518,2.518,0,0,1,2.456-2.456h8.6a2.518,2.518,0,0,1,2.456,2.456A27.812,27.812,0,0,0,424.58,83a2.684,2.684,0,0,1-.491,2.456Z" transform="translate(-409.6 -71.7)" fill="#469eff"/>
</svg>
