<svg xmlns="http://www.w3.org/2000/svg" width="37.67" height="37.67" viewBox="0 0 37.67 37.67">
  <g id="twitter" transform="translate(-40.25 -4087.33)">
    <path id="Path_317" data-name="Path 317" d="M811.085,1161h0a18.835,18.835,0,0,1-18.835-18.835h0a18.835,18.835,0,0,1,18.835-18.835h0a18.835,18.835,0,0,1,18.835,18.835h0A18.834,18.834,0,0,1,811.085,1161Z" transform="translate(-752 2964)" fill="#469eff"/>
    <g id="Group_6" data-name="Group 6" transform="translate(52.46 4095.69)">
      <path id="Path_301" data-name="Path 301" d="M822.715,1154.842a5.814,5.814,0,0,0,3.2-1.028v3.3a12.369,12.369,0,0,1-2.452.873,11.769,11.769,0,0,1-2.38.275,6.972,6.972,0,0,1-1.22-.095q-.455-.1-1.052-.287a5.648,5.648,0,0,1-1.889-1.016,3.678,3.678,0,0,1-1.1-1.423,6.078,6.078,0,0,1-.311-2.2V1145.9H812.67v-2.966a7.248,7.248,0,0,0,2.368-1.148,5.694,5.694,0,0,0,1.423-1.794,8.3,8.3,0,0,0,.753-2.678h2.99v4.855h4.879v3.731H820.2v6.816a2.855,2.855,0,0,0,.12.825,1.568,1.568,0,0,0,.311.49,2.31,2.31,0,0,0,.478.407A3.158,3.158,0,0,0,822.715,1154.842Z" transform="translate(-812.67 -1137.312)" fill="#fff"/>
    </g>
  </g>
</svg>
