<svg id="whatsapp" xmlns="http://www.w3.org/2000/svg" width="36.804" height="36.804" viewBox="0 0 36.804 36.804">
  <path id="Path_251" data-name="Path 251" d="M955.4,1304.8h0a18.4,18.4,0,0,1-18.4-18.4h0a18.4,18.4,0,0,1,18.4-18.4h0a18.4,18.4,0,0,1,18.4,18.4h0A18.4,18.4,0,0,1,955.4,1304.8Z" transform="translate(-937 -1268)" fill="#469eff"/>
  <g id="Group_2" data-name="Group 2" transform="translate(8.26 8.179)">
    <path id="Path_315" data-name="Path 315" d="M966.493,1283.379A9.973,9.973,0,0,1,970.068,1297a10.08,10.08,0,0,1-3.575,3.575,9.986,9.986,0,0,1-9.838.117l-5.515,1.753,1.8-5.328a9.987,9.987,0,0,1-.07-10.166,9.911,9.911,0,0,1,13.623-3.575Zm.023,11.287a.845.845,0,0,0-.023-.386.453.453,0,0,0-.164-.152c.047.032-.055-.023-.3-.164q-1.5-.724-1.659-.771a.485.485,0,0,0-.608.164q-.514.7-.654.888a.571.571,0,0,1-.28.116.6.6,0,0,1-.327-.047q-.491-.209-.724-.327a7.765,7.765,0,0,1-1.238-.865,7.229,7.229,0,0,1-1.355-1.706.363.363,0,0,1-.047-.3.771.771,0,0,1,.14-.21l.374-.4a1.789,1.789,0,0,0,.292-.409.475.475,0,0,0-.058-.432l-.748-1.822a.808.808,0,0,0-.222-.328.568.568,0,0,0-.315-.07l-.28-.023a1.089,1.089,0,0,0-.841.3,3.649,3.649,0,0,0-.537.654,2.854,2.854,0,0,0-.327,1.378,4.393,4.393,0,0,0,.981,2.524q-.164-.234.257.35a8.076,8.076,0,0,0,.561.724q.421.492.865.935.561.514,1.122.935a7.028,7.028,0,0,0,1.379.748,9.628,9.628,0,0,0,2.01.654,2.541,2.541,0,0,0,.911-.023,3.008,3.008,0,0,0,1-.421,1.578,1.578,0,0,0,.654-.771A2.6,2.6,0,0,0,966.516,1294.666Z" transform="translate(-951.14 -1282.001)" fill="#fff"/>
  </g>
</svg>
